P2 8 16 255 0 0 0 0 0 0 0 0 0 0 0 0 0 0 0 0 0 0 0 0 0 0 0 0 0 0 0 0 0 0 0 0 0 0 255 255 255 255 0 0 0 0 170 170 170 170 0 0 0 0 170 85 85 170 0 0 0 0 170 0 0 170 0 0 0 0 170 0 0 170 0 0 0 0 170 85 85 170 0 0 0 0 170 170 170 170 0 0 0 0 255 255 255 255 0 0 0 0 0 0 0 0 0 0 0 0 0 0 0 0 0 0 0 0 0 0 0 0 0 0 0 0 0 0 0 0 0 0 