P2 16 8 255 0 0 0 0 0 0 0 0 0 0 0 0 0 0 0 0 0 0 0 0 0 0 0 0 0 0 0 0 0 0 0 0 0 0 0 0 255 170 170 170 170 170 170 255 0 0 0 0 0 0 0 0 255 170 85 0 0 85 170 255 0 0 0 0 0 0 0 0 255 170 85 0 0 85 170 255 0 0 0 0 0 0 0 0 255 170 170 170 170 170 170 255 0 0 0 0 0 0 0 0 0 0 0 0 0 0 0 0 0 0 0 0 0 0 0 0 0 0 0 0 0 0 0 0 0 0 0 0 