P2 4 120 255 0 0 0 0 0 0 0 0 0 0 0 0 0 0 0 0 0 0 0 0 0 0 0 0 0 0 0 0 0 0 0 0 0 0 0 0 0 0 0 0 0 0 0 0 0 0 0 0 0 0 0 0 0 0 0 0 0 0 0 0 0 0 0 0 0 0 0 0 0 0 0 0 0 0 0 0 0 0 0 0 0 0 0 0 0 0 0 0 0 0 0 0 0 0 0 0 0 0 0 0 0 0 0 0 0 0 0 0 0 0 0 0 0 0 0 0 0 0 0 0 0 255 255 0 0 246 246 0 0 237 237 0 0 228 228 0 0 219 219 0 0 211 211 0 0 202 202 0 0 193 193 0 0 184 184 0 0 175 175 0 0 167 167 0 0 158 158 0 0 149 149 0 0 140 140 0 0 131 131 0 0 123 123 0 0 114 114 0 0 105 105 0 0 96 96 0 0 87 87 0 0 79 79 0 0 70 70 0 0 61 61 0 0 52 52 0 0 43 43 0 0 35 35 0 0 26 26 0 0 17 17 0 0 8 8 0 0 0 0 0 0 0 0 0 0 8 8 0 0 17 17 0 0 26 26 0 0 35 35 0 0 43 43 0 0 52 52 0 0 61 61 0 0 70 70 0 0 79 79 0 0 87 87 0 0 96 96 0 0 105 105 0 0 114 114 0 0 123 123 0 0 131 131 0 0 140 140 0 0 149 149 0 0 158 158 0 0 167 167 0 0 175 175 0 0 184 184 0 0 193 193 0 0 202 202 0 0 211 211 0 0 219 219 0 0 228 228 0 0 237 237 0 0 246 246 0 0 255 255 0 0 0 0 0 0 0 0 0 0 0 0 0 0 0 0 0 0 0 0 0 0 0 0 0 0 0 0 0 0 0 0 0 0 0 0 0 0 0 0 0 0 0 0 0 0 0 0 0 0 0 0 0 0 0 0 0 0 0 0 0 0 0 0 0 0 0 0 0 0 0 0 0 0 0 0 0 0 0 0 0 0 0 0 0 0 0 0 0 0 0 0 0 0 0 0 0 0 0 0 0 0 0 0 0 0 0 0 0 0 0 0 0 0 0 0 0 0 0 0 0 