P3 12 16 255 255 0 0 255 0 0 255 0 0 255 0 0 255 255 255 255 255 255 255 255 255 255 255 255 0 0 255 0 0 255 0 0 255 0 0 255 255 37 37 255 37 37 255 37 37 255 37 37 218 255 218 218 255 218 218 255 218 218 255 218 37 37 255 37 37 255 37 37 255 37 37 255 255 73 73 255 73 73 255 73 73 255 73 73 182 255 182 182 255 182 182 255 182 182 255 182 73 73 255 73 73 255 73 73 255 73 73 255 255 110 110 255 110 110 255 110 110 255 110 110 145 255 145 145 255 145 145 255 145 145 255 145 110 110 255 110 110 255 110 110 255 110 110 255 255 146 146 255 146 146 255 146 146 255 146 146 109 255 109 109 255 109 109 255 109 109 255 109 146 146 255 146 146 255 146 146 255 146 146 255 255 183 183 255 183 183 255 183 183 255 183 183 72 255 72 72 255 72 72 255 72 72 255 72 183 183 255 183 183 255 183 183 255 183 183 255 255 219 219 255 219 219 255 219 219 255 219 219 36 255 36 36 255 36 36 255 36 36 255 36 219 219 255 219 219 255 219 219 255 219 219 255 255 255 255 255 255 255 255 255 255 255 255 255 0 255 0 0 255 0 0 255 0 0 255 0 255 255 255 255 255 255 255 255 255 255 255 255 0 0 0 0 0 0 0 0 0 0 0 0 0 0 0 0 0 0 255 255 255 255 255 255 255 255 255 255 255 255 255 255 255 255 255 255 37 37 37 37 37 37 37 37 37 37 37 37 37 37 37 37 37 37 218 218 218 218 218 218 218 218 218 218 218 218 218 218 218 218 218 218 73 73 73 73 73 73 73 73 73 73 73 73 73 73 73 73 73 73 182 182 182 182 182 182 182 182 182 182 182 182 182 182 182 182 182 182 110 110 110 110 110 110 110 110 110 110 110 110 110 110 110 110 110 110 145 145 145 145 145 145 145 145 145 145 145 145 145 145 145 145 145 145 146 146 146 146 146 146 146 146 146 146 146 146 146 146 146 146 146 146 109 109 109 109 109 109 109 109 109 109 109 109 109 109 109 109 109 109 183 183 183 183 183 183 183 183 183 183 183 183 183 183 183 183 183 183 72 72 72 72 72 72 72 72 72 72 72 72 72 72 72 72 72 72 219 219 219 219 219 219 219 219 219 219 219 219 219 219 219 219 219 219 36 36 36 36 36 36 36 36 36 36 36 36 36 36 36 36 36 36 255 255 255 255 255 255 255 255 255 255 255 255 255 255 255 255 255 255 0 0 0 0 0 0 0 0 0 0 0 0 0 0 0 0 0 0 