P3 6 120 255 255 0 0 255 0 0 255 255 255 255 255 255 0 0 255 0 0 255 255 5 5 255 5 5 250 255 250 250 255 250 5 5 255 5 5 255 255 9 9 255 9 9 246 255 246 246 255 246 9 9 255 9 9 255 255 13 13 255 13 13 242 255 242 242 255 242 13 13 255 13 13 255 255 18 18 255 18 18 237 255 237 237 255 237 18 18 255 18 18 255 255 22 22 255 22 22 233 255 233 233 255 233 22 22 255 22 22 255 255 26 26 255 26 26 229 255 229 229 255 229 26 26 255 26 26 255 255 31 31 255 31 31 224 255 224 224 255 224 31 31 255 31 31 255 255 35 35 255 35 35 220 255 220 220 255 220 35 35 255 35 35 255 255 39 39 255 39 39 216 255 216 216 255 216 39 39 255 39 39 255 255 44 44 255 44 44 211 255 211 211 255 211 44 44 255 44 44 255 255 48 48 255 48 48 207 255 207 207 255 207 48 48 255 48 48 255 255 52 52 255 52 52 203 255 203 203 255 203 52 52 255 52 52 255 255 57 57 255 57 57 198 255 198 198 255 198 57 57 255 57 57 255 255 61 61 255 61 61 194 255 194 194 255 194 61 61 255 61 61 255 255 65 65 255 65 65 190 255 190 190 255 190 65 65 255 65 65 255 255 70 70 255 70 70 185 255 185 185 255 185 70 70 255 70 70 255 255 74 74 255 74 74 181 255 181 181 255 181 74 74 255 74 74 255 255 78 78 255 78 78 177 255 177 177 255 177 78 78 255 78 78 255 255 83 83 255 83 83 172 255 172 172 255 172 83 83 255 83 83 255 255 87 87 255 87 87 168 255 168 168 255 168 87 87 255 87 87 255 255 91 91 255 91 91 164 255 164 164 255 164 91 91 255 91 91 255 255 96 96 255 96 96 159 255 159 159 255 159 96 96 255 96 96 255 255 100 100 255 100 100 155 255 155 155 255 155 100 100 255 100 100 255 255 104 104 255 104 104 151 255 151 151 255 151 104 104 255 104 104 255 255 109 109 255 109 109 146 255 146 146 255 146 109 109 255 109 109 255 255 113 113 255 113 113 142 255 142 142 255 142 113 113 255 113 113 255 255 117 117 255 117 117 138 255 138 138 255 138 117 117 255 117 117 255 255 122 122 255 122 122 133 255 133 133 255 133 122 122 255 122 122 255 255 126 126 255 126 126 129 255 129 129 255 129 126 126 255 126 126 255 255 130 130 255 130 130 125 255 125 125 255 125 130 130 255 130 130 255 255 134 134 255 134 134 121 255 121 121 255 121 134 134 255 134 134 255 255 139 139 255 139 139 116 255 116 116 255 116 139 139 255 139 139 255 255 143 143 255 143 143 112 255 112 112 255 112 143 143 255 143 143 255 255 147 147 255 147 147 108 255 108 108 255 108 147 147 255 147 147 255 255 152 152 255 152 152 103 255 103 103 255 103 152 152 255 152 152 255 255 156 156 255 156 156 99 255 99 99 255 99 156 156 255 156 156 255 255 160 160 255 160 160 95 255 95 95 255 95 160 160 255 160 160 255 255 165 165 255 165 165 90 255 90 90 255 90 165 165 255 165 165 255 255 169 169 255 169 169 86 255 86 86 255 86 169 169 255 169 169 255 255 173 173 255 173 173 82 255 82 82 255 82 173 173 255 173 173 255 255 178 178 255 178 178 77 255 77 77 255 77 178 178 255 178 178 255 255 182 182 255 182 182 73 255 73 73 255 73 182 182 255 182 182 255 255 186 186 255 186 186 69 255 69 69 255 69 186 186 255 186 186 255 255 191 191 255 191 191 64 255 64 64 255 64 191 191 255 191 191 255 255 195 195 255 195 195 60 255 60 60 255 60 195 195 255 195 195 255 255 199 199 255 199 199 56 255 56 56 255 56 199 199 255 199 199 255 255 204 204 255 204 204 51 255 51 51 255 51 204 204 255 204 204 255 255 208 208 255 208 208 47 255 47 47 255 47 208 208 255 208 208 255 255 212 212 255 212 212 43 255 43 43 255 43 212 212 255 212 212 255 255 217 217 255 217 217 38 255 38 38 255 38 217 217 255 217 217 255 255 221 221 255 221 221 34 255 34 34 255 34 221 221 255 221 221 255 255 225 225 255 225 225 30 255 30 30 255 30 225 225 255 225 225 255 255 230 230 255 230 230 25 255 25 25 255 25 230 230 255 230 230 255 255 234 234 255 234 234 21 255 21 21 255 21 234 234 255 234 234 255 255 238 238 255 238 238 17 255 17 17 255 17 238 238 255 238 238 255 255 243 243 255 243 243 12 255 12 12 255 12 243 243 255 243 243 255 255 247 247 255 247 247 8 255 8 8 255 8 247 247 255 247 247 255 255 251 251 255 251 251 4 255 4 4 255 4 251 251 255 251 251 255 255 255 255 255 255 255 0 255 0 0 255 0 255 255 255 255 255 255 0 0 0 0 0 0 0 0 0 255 255 255 255 255 255 255 255 255 5 5 5 5 5 5 5 5 5 250 250 250 250 250 250 250 250 250 9 9 9 9 9 9 9 9 9 246 246 246 246 246 246 246 246 246 13 13 13 13 13 13 13 13 13 242 242 242 242 242 242 242 242 242 18 18 18 18 18 18 18 18 18 237 237 237 237 237 237 237 237 237 22 22 22 22 22 22 22 22 22 233 233 233 233 233 233 233 233 233 26 26 26 26 26 26 26 26 26 229 229 229 229 229 229 229 229 229 31 31 31 31 31 31 31 31 31 224 224 224 224 224 224 224 224 224 35 35 35 35 35 35 35 35 35 220 220 220 220 220 220 220 220 220 39 39 39 39 39 39 39 39 39 216 216 216 216 216 216 216 216 216 44 44 44 44 44 44 44 44 44 211 211 211 211 211 211 211 211 211 48 48 48 48 48 48 48 48 48 207 207 207 207 207 207 207 207 207 52 52 52 52 52 52 52 52 52 203 203 203 203 203 203 203 203 203 57 57 57 57 57 57 57 57 57 198 198 198 198 198 198 198 198 198 61 61 61 61 61 61 61 61 61 194 194 194 194 194 194 194 194 194 65 65 65 65 65 65 65 65 65 190 190 190 190 190 190 190 190 190 70 70 70 70 70 70 70 70 70 185 185 185 185 185 185 185 185 185 74 74 74 74 74 74 74 74 74 181 181 181 181 181 181 181 181 181 78 78 78 78 78 78 78 78 78 177 177 177 177 177 177 177 177 177 83 83 83 83 83 83 83 83 83 172 172 172 172 172 172 172 172 172 87 87 87 87 87 87 87 87 87 168 168 168 168 168 168 168 168 168 91 91 91 91 91 91 91 91 91 164 164 164 164 164 164 164 164 164 96 96 96 96 96 96 96 96 96 159 159 159 159 159 159 159 159 159 100 100 100 100 100 100 100 100 100 155 155 155 155 155 155 155 155 155 104 104 104 104 104 104 104 104 104 151 151 151 151 151 151 151 151 151 109 109 109 109 109 109 109 109 109 146 146 146 146 146 146 146 146 146 113 113 113 113 113 113 113 113 113 142 142 142 142 142 142 142 142 142 117 117 117 117 117 117 117 117 117 138 138 138 138 138 138 138 138 138 122 122 122 122 122 122 122 122 122 133 133 133 133 133 133 133 133 133 126 126 126 126 126 126 126 126 126 129 129 129 129 129 129 129 129 129 130 130 130 130 130 130 130 130 130 125 125 125 125 125 125 125 125 125 134 134 134 134 134 134 134 134 134 121 121 121 121 121 121 121 121 121 139 139 139 139 139 139 139 139 139 116 116 116 116 116 116 116 116 116 143 143 143 143 143 143 143 143 143 112 112 112 112 112 112 112 112 112 147 147 147 147 147 147 147 147 147 108 108 108 108 108 108 108 108 108 152 152 152 152 152 152 152 152 152 103 103 103 103 103 103 103 103 103 156 156 156 156 156 156 156 156 156 99 99 99 99 99 99 99 99 99 160 160 160 160 160 160 160 160 160 95 95 95 95 95 95 95 95 95 165 165 165 165 165 165 165 165 165 90 90 90 90 90 90 90 90 90 169 169 169 169 169 169 169 169 169 86 86 86 86 86 86 86 86 86 173 173 173 173 173 173 173 173 173 82 82 82 82 82 82 82 82 82 178 178 178 178 178 178 178 178 178 77 77 77 77 77 77 77 77 77 182 182 182 182 182 182 182 182 182 73 73 73 73 73 73 73 73 73 186 186 186 186 186 186 186 186 186 69 69 69 69 69 69 69 69 69 191 191 191 191 191 191 191 191 191 64 64 64 64 64 64 64 64 64 195 195 195 195 195 195 195 195 195 60 60 60 60 60 60 60 60 60 199 199 199 199 199 199 199 199 199 56 56 56 56 56 56 56 56 56 204 204 204 204 204 204 204 204 204 51 51 51 51 51 51 51 51 51 208 208 208 208 208 208 208 208 208 47 47 47 47 47 47 47 47 47 212 212 212 212 212 212 212 212 212 43 43 43 43 43 43 43 43 43 217 217 217 217 217 217 217 217 217 38 38 38 38 38 38 38 38 38 221 221 221 221 221 221 221 221 221 34 34 34 34 34 34 34 34 34 225 225 225 225 225 225 225 225 225 30 30 30 30 30 30 30 30 30 230 230 230 230 230 230 230 230 230 25 25 25 25 25 25 25 25 25 234 234 234 234 234 234 234 234 234 21 21 21 21 21 21 21 21 21 238 238 238 238 238 238 238 238 238 17 17 17 17 17 17 17 17 17 243 243 243 243 243 243 243 243 243 12 12 12 12 12 12 12 12 12 247 247 247 247 247 247 247 247 247 8 8 8 8 8 8 8 8 8 251 251 251 251 251 251 251 251 251 4 4 4 4 4 4 4 4 4 255 255 255 255 255 255 255 255 255 0 0 0 0 0 0 0 0 0 